<svg xmlns="http://www.w3.org/2000/svg" width="196.065" height="91.952" viewBox="0 0 196.065 91.952">
  <g id="Layer_2" data-name="Layer 2" transform="translate(0.003 0.032)">
    <g id="Layer_1" data-name="Layer 1" transform="translate(-0.003 -0.032)">
      <path id="Path_40" data-name="Path 40" d="M18.358,1.029c-2.932.51-5.864,1.147-8.669,1.912-1.147.382-2.295.637-3.442,1.02a12.977,12.977,0,0,0-3.314,1.4A8.579,8.579,0,0,0,1.021,7.148,4.054,4.054,0,0,0,0,9.7a.472.472,0,0,0,.127.382c.127.255.637.127.892,0,.892-.51,1.785-.892,2.677-1.4a5.851,5.851,0,0,1,2.04-.892A35.7,35.7,0,0,0,9.689,6.638,68.176,68.176,0,0,1,23.074,4.47,78.858,78.858,0,0,1,47.55,6.255C50.992,7.02,54.562,7.912,58,8.677c2.8.765,5.737,1.4,8.541,2.295,1.4.382,2.8.765,4.334,1.275,1.275.382,2.8.765,4.079,1.275l1.147.765c.637.255,1.275.382,1.785.637a17.719,17.719,0,0,1,3.569,1.53,35.388,35.388,0,0,1,6.5,4.207c1.912,1.53,3.824,3.187,5.609,4.844.765.765,1.785,1.785,2.55,2.677.127.127.51.382.382.637s-1.275.255-1.4.255a19.019,19.019,0,0,0-2.677.255A78.616,78.616,0,0,0,81.46,31.113a46.606,46.606,0,0,0-7.394,2.8,18.51,18.51,0,0,0-3.314,2.167,15.8,15.8,0,0,1-2.8,2.295,7.2,7.2,0,0,0-2.8,3.824,12.34,12.34,0,0,0-1.02,5.227c-.127,2.677,3.314,6.756,6.246,7.776,5.609,1.912,10.836.127,16.19-.765,4.844-.765,8.8-3.314,12.875-5.864,3.569-2.295,6.756-4.972,5.864-9.943-.255-1.912.637-1.785,2.04-1.53.255,0,.255.127.51.127,5.737.892,11.473,1.275,17.082,2.8a81.446,81.446,0,0,1,16.572,6.5,84.851,84.851,0,0,1,12.493,8.8,33.782,33.782,0,0,1,3.314,2.677,19.975,19.975,0,0,1,3.187,2.55,13.537,13.537,0,0,0,2.677,2.04c1.02.765,2.167,1.53,3.187,2.295a23.088,23.088,0,0,1,2.677,2.295l1.275,1.275c1.275,1.147,2.8,1.785,3.952,2.8a6.374,6.374,0,0,1,.892,1.02c.637.51,1.147,1.02,1.785,1.53,1.147,1.02,2.295,1.912,3.442,2.932a12.748,12.748,0,0,1,1.4,1.275c.255.255.892.637.892,1.02s0,.255-.255.255-.892-.127-1.275-.127h-.765c-.765.127-1.4.127-2.167.255a45.688,45.688,0,0,0-8.286,1.785c-.765.255-1.53.382-1.912,1.02s-.255,1.657.382,1.785c.255.127.51,0,.765,0A26.171,26.171,0,0,1,183.188,85.8a21.9,21.9,0,0,1,5.864,3.187l1.147.765c.892.51,1.785,1.147,2.677,1.657a2.269,2.269,0,0,0,1.275.51c.765-.127,1.275-.892,1.657-1.785a3.723,3.723,0,0,0,.255-1.147,1.479,1.479,0,0,0-.892-.892,11.065,11.065,0,0,1-2.167-2.8c-.51-1.147-1.275-2.04-1.785-3.059a19.976,19.976,0,0,1-2.04-7.139,34.126,34.126,0,0,1,.765-11.346.574.574,0,0,0,0-.637c-.127-.127-.255-.255-.382-.255a2.04,2.04,0,0,0-2.422.637,5.354,5.354,0,0,0-1.147,2.422,21.239,21.239,0,0,0-.765,5.609c0,.765.255,1.275.255,2.04a29.09,29.09,0,0,1-2.8-2.8c-.765-.765-1.53-1.275-2.295-1.912l-3.187-2.8a31.873,31.873,0,0,1-3.059-2.8,29.931,29.931,0,0,0-3.7-3.314l-4.334-3.952a12.111,12.111,0,0,0-2.422-2.04,7.967,7.967,0,0,1-2.55-1.657c-1.912-1.785-3.952-3.314-5.991-4.972a69.833,69.833,0,0,0-12.875-8.414c-5.1-2.55-10.836-3.952-16.317-5.482-1.785-.51-3.442-.892-5.227-1.4a67.435,67.435,0,0,0-9.943-1.657c-.765,0-1.275-.255-1.912-.255-1.4,0-2.8.255-4.334.127a1.772,1.772,0,0,1-1.275-.637c-1.02-1.147-1.785-2.295-2.8-3.442a13.434,13.434,0,0,0-.892-1.4c-.255-.51-1.02-.765-1.4-1.275-.765-.892-1.657-1.785-2.55-2.8a52.366,52.366,0,0,0-5.737-4.844,62.325,62.325,0,0,0-8.8-5.354,10.8,10.8,0,0,0-4.334-1.785,3.926,3.926,0,0,0-1.275-.127,7.3,7.3,0,0,1-1.785-.51c-2.8-.892-5.482-1.785-8.286-2.55a146.222,146.222,0,0,0-16.827-3.7,11.473,11.473,0,0,0-2.932-.255,6.144,6.144,0,0,1-1.53,0c-1.4-.255-2.932-.382-4.334-.51a25.993,25.993,0,0,0-8.8-1.02c-2.677.127-5.354.382-7.9.51h-.382C21.162.646,19.632.9,18.358,1.029ZM90.893,36.085a18.293,18.293,0,0,1,2.8-.51,36.714,36.714,0,0,1,7.521.51,1.492,1.492,0,0,1,.892.255c.255.255.127.637,0,.892s-.127.765-.255,1.02a6.144,6.144,0,0,1-1.53,2.167,29.243,29.243,0,0,1-13.768,7.139c-4.717,1.275-9.688,2.8-14.788,1.275-1.4-.51-3.187-.637-3.569-2.295s1.275-2.55,2.295-3.442c5.1-4.334,11.346-5.482,16.445-6.246a36.164,36.164,0,0,1,3.952-.765Z" transform="translate(0.003 0.032)" fill="#fdb913"/>
    </g>
  </g>
</svg>
