<svg xmlns="http://www.w3.org/2000/svg" width="54.286" height="34.449" viewBox="0 0 54.286 34.449">
  <g id="expresscard" transform="translate(-2.8 1.9)">
    <path id="Path_115" data-name="Path 115" d="M2.8-1.9H57.086V32.549H2.8Z" transform="translate(0 0)" fill="#fff" fill-rule="evenodd"/>
    <path id="Path_116" data-name="Path 116" d="M108.555,89.955V73.2H77.1V86.167l1.181-2.66h2l.664,1.571V83.507H83.38l.738,1.571.72-1.571h8.607a1.124,1.124,0,0,1,1,.481v-.481h1.81v.573a1.407,1.407,0,0,1,1.275-.573H101.2l.664,1.533V83.507h2.179l.756,1.329V83.507h2V88.42h-2.143l-.886-1.459V88.42h-2.716l-.425-.96h-.868l-.407.96h-1.7c-.369-.036-1.219-.183-1.4-.756v.756H92.984V87.33A.358.358,0,0,0,92.651,87H92.3V88.42H85.355V87.312l-.535,1.107h-1.4l-.535-1.128V88.42H80.091l-.369-.886h-.886l-.387.886H77.1V104.25h31.455v-9.7a1.1,1.1,0,0,1-.85.333h-2.622v-.371a1.179,1.179,0,0,1-.942.369H96.734V93.85c-.018-.13.056-.407-.313-.407h-.313v1.441H94.15V93.221c-.2.333-.647.351-.942.369H92.174v1.293H89.548l-.758-.924-.812.924H83.51V89.955h4.544l.776.906.812-.906h3.584a1.4,1.4,0,0,1,.924.407v-.407H97.2a1.292,1.292,0,0,1,1.016.481v-.481h3.841V90.4a1.158,1.158,0,0,1,1.016-.443h2.456v.425a1.288,1.288,0,0,1,.96-.425Z" transform="translate(-72.638 -73.42)" fill="#00acec" fill-rule="evenodd"/>
    <path id="Path_117" data-name="Path 117" d="M1851.141,955.8,1839.8,967.1h1.606l9.734-9.7V955.8Z" transform="translate(-1795.902 -936.274)" fill="#33348e" fill-rule="evenodd"/>
    <path id="Path_118" data-name="Path 118" d="M1989.964,1097l-8.164,8.146h1.606l6.557-6.539V1097Z" transform="translate(-1934.725 -1074.315)" fill="#00acec" fill-rule="evenodd"/>
    <path id="Path_119" data-name="Path 119" d="M2128,1238.2l-5,4.987h1.624l3.381-3.38Z" transform="translate(-2072.766 -1212.356)" fill="#33a457" fill-rule="evenodd"/>
    <path id="Path_120" data-name="Path 120" d="M29.969-1.9H2.8V32.549H57.086V-1.9ZM56.514,31.938H3.426V-1.271H56.511l0,33.209Z" transform="translate(0 0)" fill="#00acec" fill-rule="evenodd"/>
    <path id="Path_121" data-name="Path 121" d="M1552.241,1331.5a1.423,1.423,0,1,0,1.423,1.423,1.428,1.428,0,0,0-1.423-1.423Zm0,2.678a1.268,1.268,0,0,1-1.255-1.255,1.246,1.246,0,1,1,1.255,1.255Z" transform="translate(-1513.368 -1303.569)" fill="#00acec" fill-rule="evenodd"/>
    <path id="Path_122" data-name="Path 122" d="M109.005,577.8a.4.4,0,0,0-.166-.333.735.735,0,0,0-.389-.074h-.7v1.588h.2v-.738h.351l.461.738h.221l-.481-.738c.28,0,.5-.128.5-.443Zm-.72.3h-.333v-.573h.443c.2,0,.425.036.425.277C108.819,578.12,108.506,578.1,108.285,578.1ZM80.874,562.03l-1.128-2.53H78.288v3.62l-1.626-3.62H75.442L73.8,563.27h.98l.351-.85h1.848l.369.85h1.866v-2.808l1.235,2.808h.85l1.255-2.752v2.752h.924V559.5H82l-1.125,2.53Zm-4.821-.423H75.5l.555-1.311v.036l.573,1.275Zm15.128-1.11a.988.988,0,0,0-1.107-1h-2.4v3.77h.924v-1.329h1.2c.333,0,.461.313.461.629l.018.7h.906l-.038-.776c0-.609-.166-.886-.591-.942a1.046,1.046,0,0,0,.629-1.056Zm-1.441.664H88.595v-.85H89.74c.387,0,.517.239.517.425,0,.26-.13.425-.517.425Zm1.92,2.107h.924V559.5H91.66Zm10.455-3.77v2.606l-1.571-2.6H99.177v3.528L97.588,559.5H96.369l-1.275,2.917s-.461,0-.517-.018c-.3-.036-.647-.333-.647-1,0-.886.481-1.09,1.09-1.09h.573V559.5h-1.2c-.425,0-1.349.313-1.367,1.866-.036,1.034.425,1.9,1.459,1.9H95.7l.351-.85H97.9l.369.85H100.1v-2.752l1.662,2.752h1.275V559.5ZM97,561.607h-.573l.555-1.311.018.036.555,1.275ZM84.107,563.27h3.029v-.794H85.031v-.738h2.052v-.72H85.031v-.7h2.105V559.5H84.107Zm16.679,4.155c-.056,0-.573-.018-.647-.018-.221-.018-.389-.074-.389-.3,0-.369.351-.333.682-.333h1.423v-.812H99.9a1.037,1.037,0,0,0-1.09,1.09c0,.626.239,1.145,1.255,1.163.074,0,.517.018.647.036.277.036.333.148.333.313,0,.369-.369.369-.629.369H98.9v.794h1.94a1.086,1.086,0,0,0,1.181-1.072c0-.606-.089-1.179-1.235-1.235Zm3.472,0c-.056,0-.573-.018-.647-.018-.221-.018-.387-.074-.387-.3,0-.369.351-.333.664-.333h1.423v-.812h-1.94a1.042,1.042,0,0,0-1.107,1.09c0,.626.239,1.145,1.275,1.163.074,0,.517.018.647.036.26.036.333.148.333.313,0,.369-.387.369-.647.369h-1.515v.794h1.958a1.087,1.087,0,0,0,1.181-1.072c0-.606-.094-1.179-1.239-1.235Zm-14.37-1.459H86.637l-1.054,1.163-1.034-1.163H80.892v3.75h3.546l1.107-1.237,1.09,1.255h1.774v-1.275h1.237c.481,0,1.367-.018,1.367-1.349a1.049,1.049,0,0,0-1.125-1.143Zm-5.949,2.973H81.834v-.756h2.031v-.7H81.834v-.7h2.105l1.034,1.016-1.034,1.145Zm3.546.425-.664-.776-.664-.794.664-.72.664-.738Zm2.069-1.68H88.409v-.906h1.145c.387,0,.517.239.517.425,0,.26-.128.481-.517.481Zm5.412-.7a1,1,0,0,0-1.107-1.016H91.438v3.768h.924V568.4h1.219c.313,0,.443.313.461.647l.018.682h.906l-.036-.776c0-.609-.166-.886-.609-.942a1.008,1.008,0,0,0,.644-1.034Zm-1.441.647H92.362v-.85h1.163c.387,0,.517.239.517.425,0,.26-.148.425-.517.425Zm1.9,2.087h3.011v-.776H96.354v-.756h2.031v-.7H96.354v-.7h2.087v-.812H95.43v3.75Zm13.853-3.4c-.776,0-.924-.609-.924-1.255,0-.886.333-1.349.85-1.349a.768.768,0,0,1,.832.756h1.441a2.035,2.035,0,0,0-2.327-1.884,2.431,2.431,0,0,0,.148,4.859,2.072,2.072,0,0,0,2.217-1.9h-1.459A.774.774,0,0,1,109.282,566.317Zm6.041-1.054c0-.794-.094-1.385-1.7-1.385h-.186c-1.181.036-1.644.443-1.644,1.128h1.275a.345.345,0,0,1,.369-.315.241.241,0,0,1,.112-.018c.13,0,.443.036.443.277,0,.2-.239.26-.555.313-.7.11-1.848.092-1.848,1.146,0,.7.555,1.016,1.2,1.016a2.377,2.377,0,0,0,.647-.074,1.531,1.531,0,0,0,.611-.369l.148.351h1.2a1.283,1.283,0,0,1-.074-.5v-1.571Zm-1.886,1.405h-.11c-.277,0-.425-.112-.425-.277,0-.277.239-.333.535-.387a2.768,2.768,0,0,0,.555-.148C113.992,566.426,113.826,566.63,113.437,566.668Zm3.38-2.014v-.682H115.6v3.36h1.331V566c0-.72.277-.98.83-.98h.277V563.9a.655.655,0,0,0-.186-.018,1,1,0,0,0-1.034.776Zm3.75-1.94V564.3a1.271,1.271,0,0,0-.535-.369,1.855,1.855,0,0,0-.481-.056c-.794,0-1.423.72-1.423,1.828a1.527,1.527,0,0,0,1.533,1.718,1.225,1.225,0,0,0,.369-.036,1.266,1.266,0,0,0,.664-.5v.443h1.2v-4.618Zm-.535,3.75h-.038c-.443,0-.517-.407-.517-.756,0-.369.11-.794.555-.794s.573.407.573.776S120.475,566.447,120.032,566.464Z" transform="translate(-69.412 -548.84)" fill="#00acec" fill-rule="evenodd"/>
  </g>
</svg>
