<svg xmlns="http://www.w3.org/2000/svg" width="63.771" height="73.772" viewBox="0 0 63.771 73.772">
  <g id="Group_71" data-name="Group 71" transform="translate(-1062.546 -2868.675)">
    <path id="Path_52" data-name="Path 52" d="M433.488-602.5a31.916,31.916,0,0,0-31.069-27.924l2.138-2.138a1.749,1.749,0,0,0,0-2.39,1.749,1.749,0,0,0-2.39,0h0l-5.283,5.283a1.749,1.749,0,0,0,0,2.39h0l5.283,5.409a1.749,1.749,0,0,0,2.39,0,1.749,1.749,0,0,0,0-2.39h0l-2.767-2.767a28.612,28.612,0,0,1,28.553,28.553,28.385,28.385,0,0,1-10.692,22.264,1.646,1.646,0,0,0-.252,2.39,1.646,1.646,0,0,0,2.39.252h0a31.983,31.983,0,0,0,11.7-28.93Z" transform="translate(692.578 3504.1)" fill="#fca21f"/>
    <path id="Path_53" data-name="Path 53" d="M406.96-577.441a1.749,1.749,0,0,0-2.39,0,1.749,1.749,0,0,0,0,2.39h0l2.767,2.767a28.639,28.639,0,0,1-28.553-28.679,28.385,28.385,0,0,1,10.692-22.264,1.646,1.646,0,0,0,.252-2.39,1.646,1.646,0,0,0-2.39-.252h0a31.862,31.862,0,0,0-11.7,28.93,31.916,31.916,0,0,0,31.069,27.924l-2.138,2.138a1.749,1.749,0,0,0,0,2.39,1.749,1.749,0,0,0,2.39,0h0l5.283-5.283a1.749,1.749,0,0,0,0-2.39h0Z" transform="translate(687.157 3506.461)" fill="#fca21f"/>
    <path id="Path_54" data-name="Path 54" d="M403.216-605.01c-.252-.126-.5-.126-.629-.251a1.786,1.786,0,0,0-.755-.252c-1.635-.629-2.39-1.132-2.39-1.887,0-.377.377-.88,1.132-1.258.5-.252,2.264-1.006,4.654.755a1.782,1.782,0,0,0,2.39-.377,1.782,1.782,0,0,0-.377-2.39h0a11.3,11.3,0,0,0-3.522-1.635v-1.509a1.665,1.665,0,0,0-1.635-1.635,1.665,1.665,0,0,0-1.635,1.635v1.635a5.255,5.255,0,0,0-1.258.5A4.913,4.913,0,0,0,396.3-607.4c0,3.27,3.145,4.4,4.654,5.031.252.126.377.126.629.252l.755.377c1.635.629,2.39,1.006,2.39,1.887,0,.377-.377.88-1.132,1.258-.5.252-2.264,1.006-4.654-.755a1.782,1.782,0,0,0-2.39.377,1.782,1.782,0,0,0,.377,2.39,9.042,9.042,0,0,0,3.522,1.635v1.635a1.665,1.665,0,0,0,1.635,1.635,1.665,1.665,0,0,0,1.635-1.635v-2.013a5.256,5.256,0,0,0,1.258-.5,4.913,4.913,0,0,0,2.893-4.277c-.126-3.145-3.019-4.277-4.654-4.906Z" transform="translate(692.535 3509.25)" fill="#fca21f"/>
    <path id="Path_55" data-name="Path 55" d="M404.578-620.75a18.52,18.52,0,0,0-18.49,18.49,18.413,18.413,0,0,0,18.49,18.364,18.52,18.52,0,0,0,18.49-18.49h0a18.576,18.576,0,0,0-18.49-18.364Zm0,33.584a15.138,15.138,0,0,1-15.094-15.094,15.138,15.138,0,0,1,15.094-15.094,15.138,15.138,0,0,1,15.094,15.094A15.138,15.138,0,0,1,404.578-587.166Z" transform="translate(689.916 3507.884)" fill="#fca21f"/>
  </g>
</svg>
