<svg xmlns="http://www.w3.org/2000/svg" width="61.912" height="61.801" viewBox="0 0 61.912 61.801">
  <g id="Group_69" data-name="Group 69" transform="translate(-973.107 -2787.25)">
    <path id="Path_41" data-name="Path 41" d="M347.566-665.937l-6.186-4.207.99-1.856a.934.934,0,0,0-.124-.99,19.61,19.61,0,0,0-5.568-3.959,56.689,56.689,0,0,0,3.341-9.774,69.933,69.933,0,0,0,1.608-20.044,1.042,1.042,0,0,0-.866-.866,49.417,49.417,0,0,1-16.827-5.073,45.806,45.806,0,0,1-6.31-3.959.923.923,0,0,0-1.114,0,47.259,47.259,0,0,1-23.137,9.032,1.042,1.042,0,0,0-.866.866,75.462,75.462,0,0,0,0,10.146.956.956,0,0,0,.99.866.956.956,0,0,0,.866-.99,56.321,56.321,0,0,1-.124-9.032,48.358,48.358,0,0,0,16.7-5.2,54.262,54.262,0,0,0,6.063-3.712,44.3,44.3,0,0,0,6.063,3.712,51.184,51.184,0,0,0,16.7,5.2,65.3,65.3,0,0,1-1.608,18.683,50.165,50.165,0,0,1-3.588,10.269c0,.124-.124.124-.124.247-.124.247-.247.371-.247.619,0,.124-.124.247-.124.371-.124.247-.247.371-.247.619-.124.124-.124.371-.247.495s-.124.247-.247.371-.124.247-.247.371a.432.432,0,0,1-.124.247c-.247.371-.371.619-.619.99v.124c-.124.124-.247.371-.371.495,0,.124-.124.124-.124.247a20.544,20.544,0,0,1-1.98,2.6h0c-.124.124-.247.371-.371.495l-.371.371-.124.124-.371.371h0a32.473,32.473,0,0,1-11.507,7.918,32.176,32.176,0,0,1-13.362-10.022h0c-.124-.124-.124-.247-.247-.371a38.473,38.473,0,0,1-3.959-6.558.121.121,0,0,0-.124-.124,52.828,52.828,0,0,1-4.578-16.084c-.124-.495-.495-.866-.99-.742s-.866.495-.742.99A52.189,52.189,0,0,0,297.58-676.7a20.09,20.09,0,0,0-5.568,3.959.969.969,0,0,0-.124.99l.99,1.856-6.186,4.207c-.619,0-.742.247-.742.619a.835.835,0,0,0,.495.742l5.073,2.846v5.568a.678.678,0,0,0,.495.742c.124.124.247.124.495.124a.744.744,0,0,0,.495-.124l10.146-5.939h0l.124-.124h0v-.124h0v-.124h0v-.124h0v-.124h0v-.124h0v-.124h0v-.124h0v-.124l-1.237-2.6a27.239,27.239,0,0,1,2.6-1.114,33.929,33.929,0,0,0,11.878,7.918c.124,0,.247.124.371.124a.455.455,0,0,0,.371-.124,33.929,33.929,0,0,0,11.878-7.918,27.247,27.247,0,0,1,2.6,1.114l-1.237,2.6v.124h0v.124h0v.124h0v.124h0v.124h0v.124h0v.124h0v.124h0l.124.124h0l10.146,5.939c.124.124.247.124.495.124a.744.744,0,0,0,.495-.124,1.017,1.017,0,0,0,.495-.742v-5.568l5.073-2.846a1.017,1.017,0,0,0,.495-.742A.765.765,0,0,0,347.566-665.937Zm-54.192,8.413V-662.1a.678.678,0,0,0-.495-.742l-4.207-2.351,4.7-3.217,3.217,6.063v.124h.495l2.6.495Zm6.063-5.815h0c.124-.124.124-.124.247-.124a.121.121,0,0,0,.124-.124l.124-.124a.121.121,0,0,0,.124-.124l.124-.124h.124c.124,0,.124-.124.247-.124h0l.495.866Zm.99-2.722h0a.121.121,0,0,0-.124.124c-.124,0-.124.124-.247.124a.121.121,0,0,0-.124.124h0c-.124.124-.247.124-.371.247h0a.121.121,0,0,0-.124.124h0a10.533,10.533,0,0,0-1.608,1.237l-2.969-5.691L293.621-672a18.175,18.175,0,0,1,4.578-3.093.938.938,0,0,1,.247.495c0,.124.124.124.124.247l.371.742a.121.121,0,0,0,.124.124,32.734,32.734,0,0,0,3.217,4.825.121.121,0,0,0,.124.124c.124.124.247.247.247.371l.124.124c.124.124.124.247.247.247a1.708,1.708,0,0,1,.371.495A10.709,10.709,0,0,0,300.426-666.06Zm30.189-1.361h0c.124-.124.124-.247.247-.247l.124-.124.371-.371h0a23.78,23.78,0,0,0,1.608-2.1c.124-.124.124-.247.247-.247.124-.124.124-.247.247-.371s.124-.247.247-.371.124-.247.247-.371c.124-.247.247-.371.371-.619.124-.124.124-.247.247-.371s.124-.247.247-.495a.938.938,0,0,0,.247-.495.432.432,0,0,1,.124-.247l.371-.742c0-.124.124-.124.124-.247a.121.121,0,0,1,.124-.124,18.176,18.176,0,0,1,4.578,3.093l-4.207,7.919c-.371-.371-.99-.742-1.608-1.237h0l-.124-.124h0a.432.432,0,0,1-.247-.124h0a.121.121,0,0,1-.124-.124c-.124,0-.124-.124-.247-.124a.121.121,0,0,1-.124-.124h0A10.554,10.554,0,0,0,330.615-667.421Zm2.6,3.836.124-.371h0c.124,0,.124.124.247.124h.124l.124.124a.121.121,0,0,1,.124.124l.124.124a.121.121,0,0,1,.124.124l.124.124h.124l-1.485.124Zm7.918.742a1.017,1.017,0,0,0-.495.742v4.578l-6.557-3.835,2.6-.495h.247v-.124h0v-.124l3.217-6.063,4.825,3.217Z" transform="translate(687.157 3504.1)" fill="#fca21f"/>
    <path id="Path_42" data-name="Path 42" d="M333.508-703.493a1.042,1.042,0,0,0-.866-.866,35.7,35.7,0,0,1-17.445-6.8.923.923,0,0,0-1.114,0,37.152,37.152,0,0,1-17.445,6.8,1.042,1.042,0,0,0-.866.866,53.505,53.505,0,0,0,.247,9.651c.619,5.073,2.227,12.373,6.557,18.435a.882.882,0,0,0,.742.371.744.744,0,0,0,.495-.124.959.959,0,0,0,.247-1.237c-4.207-5.691-5.691-12.744-6.186-17.569a43.675,43.675,0,0,1-.247-8.661,37.132,37.132,0,0,0,17.074-6.681,37.809,37.809,0,0,0,17.074,6.681,39.851,39.851,0,0,1,0,5.568.956.956,0,0,0,.866.99.956.956,0,0,0,.99-.866A60.753,60.753,0,0,0,333.508-703.493Z" transform="translate(689.461 3505.405)" fill="#fca21f"/>
    <path id="Path_43" data-name="Path 43" d="M330.747-697.4a.793.793,0,0,0-.99.742c-2.1,15.961-10.269,22.642-16.827,25.364a23.074,23.074,0,0,1-8.29-5.691.827.827,0,0,0-1.237,0,.826.826,0,0,0,0,1.237,24.971,24.971,0,0,0,9.279,6.186c.124,0,.247.124.371.124a.455.455,0,0,0,.371-.124,27.34,27.34,0,0,0,13.61-12,38.77,38.77,0,0,0,4.578-14.847C331.489-696.9,331.242-697.4,330.747-697.4Z" transform="translate(691.232 3508.71)" fill="#fca21f"/>
    <path id="Path_44" data-name="Path 44" d="M323.248-699.022a3.136,3.136,0,0,0-4.454,0l-8.042,8.042-2.969-2.969a3.137,3.137,0,0,0-4.454,0,3.137,3.137,0,0,0,0,4.454l5.2,5.2a3.1,3.1,0,0,0,2.227.99,3.1,3.1,0,0,0,2.227-.99l10.393-10.393A3.1,3.1,0,0,0,323.248-699.022Zm-1.361,3.217-10.393,10.393a1.405,1.405,0,0,1-.99.371,1.4,1.4,0,0,1-.99-.371l-5.2-5.2a1.5,1.5,0,0,1,0-1.98,1.4,1.4,0,0,1,.99-.371,1.4,1.4,0,0,1,.99.371L309.885-689a.945.945,0,0,0,.619.247.945.945,0,0,0,.619-.247l8.785-8.785a1.5,1.5,0,0,1,1.98,0A1.286,1.286,0,0,1,321.887-695.805Z" transform="translate(691.06 3508.11)" fill="#fca21f"/>
  </g>
</svg>
