<svg xmlns="http://www.w3.org/2000/svg" width="61.405" height="69.75" viewBox="0 0 61.405 69.75">
  <g id="Group_70" data-name="Group 70" transform="translate(-1061.695 -2779)">
    <path id="Path_45" data-name="Path 45" d="M400.8-691.161h-.374a2.484,2.484,0,0,1-2.242-2.616,1.116,1.116,0,0,0-1.121-1.121,1.116,1.116,0,0,0-1.121,1.121,4.933,4.933,0,0,0,3.612,4.733v1.121a1.116,1.116,0,0,0,1.121,1.121,1.116,1.116,0,0,0,1.121-1.121v-1.121a4.794,4.794,0,0,0,3.861-5.231,4.865,4.865,0,0,0-4.858-4.359,2.554,2.554,0,0,1-2.616-2.616,2.554,2.554,0,0,1,2.616-2.616,2.554,2.554,0,0,1,2.616,2.616,1.116,1.116,0,0,0,1.121,1.121,1.116,1.116,0,0,0,1.121-1.121,4.711,4.711,0,0,0-3.861-4.733v-1a1.116,1.116,0,0,0-1.121-1.121,1.116,1.116,0,0,0-1.121,1.121v1.121a5.014,5.014,0,0,0-3.612,5.356,4.955,4.955,0,0,0,4.858,4.235,2.608,2.608,0,0,1,2.616,2.491A2.812,2.812,0,0,1,400.8-691.161Z" transform="translate(692.406 3508.274)" fill="#fca21f"/>
    <path id="Path_46" data-name="Path 46" d="M386.438-696.234A16.558,16.558,0,0,0,403-679.668a16.639,16.639,0,0,0,16.566-16.566A16.638,16.638,0,0,0,403-712.8,16.479,16.479,0,0,0,386.438-696.234ZM403-710.558a14.326,14.326,0,0,1,14.324,14.324A14.247,14.247,0,0,1,403-681.91a14.22,14.22,0,0,1-14.2-14.324A14.22,14.22,0,0,1,403-710.558Z" transform="translate(690.079 3507.12)" fill="#fca21f"/>
    <path id="Path_47" data-name="Path 47" d="M428.221-683.091l-8.968,4.235a7.571,7.571,0,0,0-6.228-3.861l-8.22-.249a7.609,7.609,0,0,1-3.737-1l-.872-.5a14.8,14.8,0,0,0-13.7,0v-1.868a1.116,1.116,0,0,0-1.121-1.121l-9.092-.249a1.116,1.116,0,0,0-1.121,1.121l-.623,20.053a1.116,1.116,0,0,0,1.121,1.121l9.092.249h0a1.116,1.116,0,0,0,1.121-1.121v-1l2.367-1.246a4.138,4.138,0,0,1,2.989-.374l14.075,3.986h.125a12.546,12.546,0,0,0,3.114.374,15.726,15.726,0,0,0,6.352-1.37.122.122,0,0,0,.125-.125l20.427-13.2a1.188,1.188,0,0,0,.374-1.495A5.838,5.838,0,0,0,428.221-683.091ZM376.9-667.647l.5-17.562,6.726.125-.5,17.562ZM413.9-667.9a13.4,13.4,0,0,1-7.971.872l-13.95-3.986a6.267,6.267,0,0,0-4.733.5l-1.246.623.374-11.708a12.781,12.781,0,0,1,12.829-.623l.872.5a12.712,12.712,0,0,0,4.733,1.245l8.22.249a4.939,4.939,0,0,1,4.733,3.986l-12.331-.374a1.116,1.116,0,0,0-1.121,1.121,1.116,1.116,0,0,0,1.121,1.121L419-674h0a1.116,1.116,0,0,0,1.121-1.121,6.062,6.062,0,0,0-.125-1.495l9.217-4.359h0a3.619,3.619,0,0,1,3.986.5Z" transform="translate(687.157 3513.283)" fill="#fca21f"/>
    <path id="Path_48" data-name="Path 48" d="M401.18-713.018v-10.961a1.116,1.116,0,0,0-1.121-1.121,1.116,1.116,0,0,0-1.121,1.121v10.836a1.116,1.116,0,0,0,1.121,1.121A1.008,1.008,0,0,0,401.18-713.018Z" transform="translate(693.148 3504.1)" fill="#fca21f"/>
    <path id="Path_49" data-name="Path 49" d="M408.08-714.148v-5.231a1.116,1.116,0,0,0-1.121-1.121,1.116,1.116,0,0,0-1.121,1.121v5.107a1.116,1.116,0,0,0,1.121,1.121A1.008,1.008,0,0,0,408.08-714.148Z" transform="translate(694.842 3505.229)" fill="#fca21f"/>
    <path id="Path_50" data-name="Path 50" d="M394.28-714.148v-5.231a1.116,1.116,0,0,0-1.121-1.121,1.116,1.116,0,0,0-1.121,1.121v5.107a1.116,1.116,0,0,0,1.121,1.121A1.017,1.017,0,0,0,394.28-714.148Z" transform="translate(691.454 3505.229)" fill="#fca21f"/>
  </g>
</svg>
