<svg xmlns="http://www.w3.org/2000/svg" width="63.179" height="55.375" viewBox="0 0 63.179 55.375">
  <g id="Group_72" data-name="Group 72" transform="translate(-969 -2884.1)">
    <path id="Path_51" data-name="Path 51" d="M330.871-576.6c-1.251,0-1-1.5-1-2.5a1,1,0,0,1,2,0C331.871-578.1,332.121-576.6,330.871-576.6Zm-13.383-6.128H287.221a5.418,5.418,0,0,1-5.378-5.378v-26.515A5.418,5.418,0,0,1,287.221-620h45.026a5.338,5.338,0,0,1,5.378,5.378v20.136A29.284,29.284,0,0,0,344-592.86a1.236,1.236,0,0,1,.876.876c0,.125,2.5,19.386-13.383,27.265a1.069,1.069,0,0,1-.876,0C321.866-569.1,318.614-576.6,317.488-582.729Zm18.886-10.256c-.125,0-.125,0-.25-.125a13.76,13.76,0,0,1-5.253-3.877c-1.376,1.751-4.628,4.5-12.007,5.753-.25,3.377-.5,17.76,12.007,24.264,12.632-6.5,12.257-20.887,12.007-24.264A20.31,20.31,0,0,1,336.374-592.985Zm-.75-2.5v-7.129H283.844v14.508a3.363,3.363,0,0,0,3.377,3.377h29.892a35.132,35.132,0,0,1-.125-7.379,1.063,1.063,0,0,1,.876-.876c10.631-1.626,12.007-6.254,12.007-6.254a.961.961,0,0,1,1.876,0A8.613,8.613,0,0,0,335.623-595.486Zm0-9.13v-5.253H283.844v5.253Zm0-7.254v-2.752A3.363,3.363,0,0,0,332.247-618H287.221a3.363,3.363,0,0,0-3.377,3.377v2.752ZM294.6-595.861h-5.628a1,1,0,0,1,0-2H294.6A1,1,0,1,1,294.6-595.861Zm9.756,0H298.6a1,1,0,0,1,0-2h5.753A1,1,0,0,1,304.356-595.861Zm0,6.379H288.972a1,1,0,0,1,0-2h15.384A1,1,0,0,1,304.356-589.483Zm26.515,17.01a6.405,6.405,0,0,1-6.379-6.379v-5.378c0-1.251,1.376-1,2.251-1v-2.752c0-5.378,8.255-5.378,8.255,0v2.752c.875,0,2.376-.25,2.376,1v5.378A6.433,6.433,0,0,1,330.871-572.473Zm-2-12.882h4.252v-2.752c0-2.752-4.252-2.752-4.252,0Zm-2.376,2v4.378a4.35,4.35,0,0,0,4.377,4.377,4.35,4.35,0,0,0,4.378-4.377v-4.378Z" transform="translate(687.157 3504.1)" fill="#fca21f"/>
  </g>
</svg>
