<svg id="mastercard" xmlns="http://www.w3.org/2000/svg" width="54.446" height="34.449" viewBox="0 0 54.446 34.449">
  <path id="Path_123" data-name="Path 123" d="M0,34.449H54.446V0H0V34.449Z" fill="#1b3771" fill-rule="evenodd"/>
  <path id="Path_124" data-name="Path 124" d="M941.1,122.524a14.869,14.869,0,1,0-4.9-11.035,14.828,14.828,0,0,0,4.9,11.035Z" transform="translate(-913.838 -94.293)" fill="#e9b040" fill-rule="evenodd"/>
  <path id="Path_125" data-name="Path 125" d="M2099.8,1047.868a.469.469,0,0,1,.5-.468.463.463,0,0,1,.468.468.483.483,0,1,1-.965.01Zm.494.38a.383.383,0,0,0,.351-.38.355.355,0,0,0-.351-.351.362.362,0,0,0-.38.351A.389.389,0,0,0,2100.294,1048.248Zm-.086-.146h-.088v-.437h.174a.179.179,0,0,1,.117.029c.029.029.057.06.057.088,0,.06-.029.117-.086.117l.086.206h-.117l-.057-.174h-.088l0,.172Zm0-.263h.117c.029,0,.029-.029.029-.06a.028.028,0,0,0-.029-.029h-.117v.088Z" transform="translate(-2049.644 -1022.382)" fill="#e9b040" fill-rule="evenodd"/>
  <path id="Path_126" data-name="Path 126" d="M129.891,109.912a14.658,14.658,0,0,0-.263-1.576H120.52q.179-.8.437-1.576h8.234q-.269-.8-.614-1.576h-7.006q.4-.806.877-1.576H127.7a9.835,9.835,0,0,0-1.139-1.576h-2.979a15.138,15.138,0,0,1,1.488-1.576,14.888,14.888,0,1,0,0,22.071,19.728,19.728,0,0,0,1.519-1.576h-3.007a15.731,15.731,0,0,1-1.139-1.576H127.7a13.727,13.727,0,0,0,.877-1.576h-7.006a12.745,12.745,0,0,1-.614-1.576h8.234a15.727,15.727,0,0,0,.437-1.576,15.068,15.068,0,0,0,.263-1.576,14.2,14.2,0,0,0,0-3.153Z" transform="translate(-97.807 -94.293)" fill="#cc2131" fill-rule="evenodd"/>
  <path id="Path_127" data-name="Path 127" d="M2099.8,844.968a.469.469,0,0,1,.5-.468.463.463,0,0,1,.468.468.483.483,0,1,1-.965.01Zm.494.38a.383.383,0,0,0,.351-.38.355.355,0,0,0-.351-.351.362.362,0,0,0-.38.351A.389.389,0,0,0,2100.294,845.348Zm-.086-.146h-.088v-.437h.174a.179.179,0,0,1,.117.029c.029.029.057.06.057.088,0,.06-.029.117-.086.117l.086.205h-.117l-.057-.174h-.088l0,.172Zm0-.263h.117c.029,0,.029-.029.029-.06a.028.028,0,0,0-.029-.029h-.117v.088Z" transform="translate(-2049.644 -824.328)" fill="#fff" fill-rule="evenodd"/>
  <path id="Path_128" data-name="Path 128" d="M159.361,588.12a4.133,4.133,0,0,1-1.225.205,1.171,1.171,0,0,1-1.225-1.342,4.043,4.043,0,0,1,.057-.554l.088-.583.088-.5.7-4.2h1.548l-.174.934h.963l-.234,1.548h-.963l-.437,2.51c0,.088-.029.174-.029.234,0,.32.174.468.554.468a2.439,2.439,0,0,0,.5-.06l-.208,1.34Zm4.992-.057a5.464,5.464,0,0,1-1.665.263,2.478,2.478,0,0,1-2.745-2.745c0-2.1,1.2-3.678,2.833-3.678a2.062,2.062,0,0,1,2.159,2.248,6.623,6.623,0,0,1-.2,1.519H161.52v.174c0,.729.468,1.08,1.4,1.08a3.97,3.97,0,0,0,1.694-.38l-.263,1.519Zm-.963-3.65v-.291a.713.713,0,0,0-.76-.788c-.525,0-.877.38-1.022,1.08Zm-16.379,3.8h-1.605l.934-5.809-2.073,5.809h-1.108l-.117-5.78-.994,5.78H140.5l1.256-7.562h2.305l.088,4.672,1.548-4.672h2.57Zm3.884-2.745c-.174,0-.205-.029-.32-.029-.905,0-1.371.351-1.371.934a.57.57,0,0,0,.583.643c.786,0,1.077-.643,1.108-1.548Zm1.283,2.745h-1.4l.029-.643a1.825,1.825,0,0,1-1.694.76,1.544,1.544,0,0,1-1.431-1.694,3.142,3.142,0,0,1,.117-.788c.263-.963,1.225-1.548,2.685-1.577a6.2,6.2,0,0,1,.7.029,1.238,1.238,0,0,0,.057-.408c0-.408-.32-.526-1.08-.526a6.326,6.326,0,0,0-1.342.174l-.2.088H148.5l.234-1.371a5.956,5.956,0,0,1,1.868-.32c1.4,0,2.131.614,2.131,1.811a5.109,5.109,0,0,1-.088,1.2l-.318,2.188-.057.38-.057.32v.205l-.031.174Zm19.94-6.072a3.087,3.087,0,0,1,1.431.408l.263-1.665c-.146-.057-.174-.057-.38-.146l-.671-.146a2.665,2.665,0,0,0-.729-.088,2.915,2.915,0,0,0-1.751.32,3.924,3.924,0,0,0-.963.788l-.174-.06-1.665,1.168.088-.643h-1.722l-.963,6.132h1.605l.583-3.3a5.491,5.491,0,0,1,.351-.614.9.9,0,0,1,.877-.38h.117c-.029.351-.06.76-.06,1.168,0,2.014,1.139,3.27,2.89,3.27a4.552,4.552,0,0,0,1.4-.234l.291-1.722a3.054,3.054,0,0,1-1.371.38c-.934,0-1.488-.671-1.488-1.839-.007-1.631.812-2.8,2.038-2.8Zm13.634-1.491-.351,2.162a1.64,1.64,0,0,0-1.459-.846,2.428,2.428,0,0,0-2.131,1.371l-1.022-.614.088-.643h-1.722l-.991,6.132H179.8l.525-3.3s.408-.468.525-.614a.9.9,0,0,1,.7-.38,5.747,5.747,0,0,0-.291,1.811c0,1.548.817,2.568,1.985,2.568a1.856,1.856,0,0,0,1.488-.7l-.088.614h1.548l1.225-7.562Zm-1.956,6.1c-.554,0-.817-.38-.817-1.2,0-1.2.5-2.073,1.254-2.073.554,0,.848.437.848,1.225,0,1.2-.526,2.045-1.285,2.045Zm-7.445-1.285c-.174,0-.2-.029-.32-.029-.905,0-1.373.351-1.373.934a.57.57,0,0,0,.583.643c.791,0,1.082-.643,1.111-1.548Zm1.285,2.745h-1.4l.029-.643a1.825,1.825,0,0,1-1.694.76,1.568,1.568,0,0,1-1.488-1.694c.029-1.459,1.108-2.365,2.862-2.365a6.2,6.2,0,0,1,.7.029,1.192,1.192,0,0,0,.06-.408c0-.408-.32-.526-1.08-.526a6.085,6.085,0,0,0-1.342.174l-.234.088h-.088l.234-1.371a5.956,5.956,0,0,1,1.868-.32c1.4,0,2.131.614,2.131,1.811a5.11,5.11,0,0,1-.088,1.2l-.32,2.19-.06.38-.057.32-.029.205v.172Zm-22.1-4.818a10.167,10.167,0,0,1,1.225.088l.234-1.431a14.233,14.233,0,0,0-1.459-.117c-1.782,0-2.393.963-2.393,2.1a1.734,1.734,0,0,0,1.2,1.665c.671.32.788.38.788.643,0,.38-.351.614-.994.614a5.237,5.237,0,0,1-1.431-.234l-.174,1.4h.029l.291.06a1.384,1.384,0,0,0,.408.057,6.35,6.35,0,0,0,.934.057c1.782,0,2.539-.671,2.539-2.042a1.708,1.708,0,0,0-1.225-1.694c-.669-.323-.757-.351-.757-.645s.291-.525.788-.525Z" transform="translate(-137.144 -566.634)" fill="#1b3771" fill-rule="evenodd"/>
  <path id="Path_129" data-name="Path 129" d="M193.381,561.38l-.263,1.634a3.073,3.073,0,0,0-1.431-.408c-1.225,0-2.073,1.168-2.073,2.833,0,1.139.583,1.839,1.517,1.839a3.062,3.062,0,0,0,1.373-.38l-.291,1.722a5.442,5.442,0,0,1-1.431.205c-1.722,0-2.8-1.225-2.8-3.241,0-2.716,1.488-4.584,3.619-4.584a5.051,5.051,0,0,1,.731.057l.671.174c.205.088.234.088.38.148Zm-5.167,1.137a.378.378,0,0,0-.174-.029c-.526,0-.817.263-1.314.994l.146-.934h-1.488l-.963,6.16h1.605c.583-3.767.729-4.409,1.519-4.409h.117a5.489,5.489,0,0,1,.614-1.782Zm-9.313,6.1a3.526,3.526,0,0,1-1.168.205,1.187,1.187,0,0,1-1.285-1.342,4.043,4.043,0,0,1,.057-.554l.088-.614.088-.468.7-4.2h1.605l-.174.905h.817l-.234,1.519h-.817l-.437,2.539c0,.117-.029.205-.029.263,0,.32.174.468.554.468a1.5,1.5,0,0,0,.437-.06l-.2,1.342Zm-6.218-4.116a1.769,1.769,0,0,0,1.225,1.693c.671.32.76.408.76.7,0,.38-.291.554-.934.554a4.4,4.4,0,0,1-1.431-.263l-.234,1.431h.088l.291.06a1.31,1.31,0,0,0,.408.057c.38.029.7.057.905.057,1.694,0,2.482-.643,2.482-2.042a1.687,1.687,0,0,0-1.139-1.722c-.671-.291-.76-.38-.76-.643,0-.351.263-.526.788-.526a9.047,9.047,0,0,1,1.168.117l.234-1.431a12.532,12.532,0,0,0-1.431-.117c-1.811,0-2.422.934-2.422,2.073Zm33.047,4.2h-1.548l.086-.614a1.915,1.915,0,0,1-1.488.671c-1.168,0-1.956-.991-1.956-2.539,0-2.045,1.2-3.767,2.627-3.767a1.812,1.812,0,0,1,1.548.846l.351-2.162h1.605l-1.225,7.565Zm-2.393-1.462c.76,0,1.285-.846,1.285-2.073,0-.76-.291-1.2-.846-1.2-.729,0-1.256.846-1.256,2.073C202.52,566.838,202.782,567.246,203.336,567.246Zm-19.5,1.314a5.381,5.381,0,0,1-1.665.263,2.453,2.453,0,0,1-2.745-2.745c0-2.131,1.2-3.679,2.833-3.679a2.062,2.062,0,0,1,2.159,2.248,8.318,8.318,0,0,1-.174,1.519h-3.21a.442.442,0,0,0-.029.174c0,.7.468,1.08,1.431,1.08a3.941,3.941,0,0,0,1.665-.38Zm-.905-3.647v-.32a.7.7,0,0,0-.76-.788c-.5,0-.877.408-1.022,1.108Zm-16.379,3.8h-1.605l.934-5.809-2.073,5.809H162.7l-.117-5.781-.994,5.781H160.1l1.256-7.562h2.305l.088,4.672,1.548-4.672h2.51l-1.256,7.562Zm4-2.745a1.969,1.969,0,0,0-.38-.029c-.905,0-1.371.32-1.371.934a.584.584,0,0,0,.583.642c.671,0,1.137-.642,1.168-1.548Zm1.166,2.745h-1.342l.029-.643a2.011,2.011,0,0,1-1.694.729,1.487,1.487,0,0,1-1.459-1.665c0-1.488,1.022-2.365,2.833-2.365a5.283,5.283,0,0,1,.643.029,1.015,1.015,0,0,0,.057-.38c0-.408-.263-.554-1.022-.554a4.656,4.656,0,0,0-1.342.174l-.234.057-.146.029.234-1.371a6.564,6.564,0,0,1,1.928-.32c1.4,0,2.131.614,2.131,1.782a6.476,6.476,0,0,1-.146,1.225l-.32,2.19-.057.38-.029.32-.029.205-.033.177Zm24.29-2.745a1.969,1.969,0,0,0-.38-.029c-.905,0-1.373.32-1.373.934a.584.584,0,0,0,.583.642c.645,0,1.142-.642,1.17-1.548Zm1.168,2.745h-1.342l.029-.643a2.047,2.047,0,0,1-1.694.729,1.508,1.508,0,0,1-1.488-1.665c0-1.488,1.051-2.365,2.862-2.365a5.283,5.283,0,0,1,.643.029.977.977,0,0,0,.06-.38c0-.408-.263-.554-1.022-.554a4.667,4.667,0,0,0-1.342.174l-.234.057-.146.029.234-1.371a6.564,6.564,0,0,1,1.928-.32c1.4,0,2.131.614,2.131,1.782a6.475,6.475,0,0,1-.146,1.225l-.32,2.19-.057.38-.06.32-.029.205,0,.177Zm4.321-6.191a.222.222,0,0,0-.146-.029c-.526,0-.846.263-1.342.994l.146-.934H198.7l-.994,6.16h1.634c.554-3.767.731-4.409,1.488-4.409h.117a6.336,6.336,0,0,1,.614-1.782Z" transform="translate(-156.276 -547.6)" fill="#fff" fill-rule="evenodd"/>
</svg>
