<svg xmlns="http://www.w3.org/2000/svg" width="20.976" height="20.971" viewBox="0 0 20.976 20.971">
  <path id="Path_144" data-name="Path 144" d="M10.415,36.934a5.377,5.377,0,1,0,5.377,5.377A5.368,5.368,0,0,0,10.415,36.934Zm0,8.872a3.5,3.5,0,1,1,3.5-3.5,3.5,3.5,0,0,1-3.5,3.5Zm6.851-9.092a1.254,1.254,0,1,1-1.254-1.254A1.251,1.251,0,0,1,17.266,36.714Zm3.561,1.273a6.206,6.206,0,0,0-1.694-4.394A6.247,6.247,0,0,0,14.739,31.9c-1.731-.1-6.921-.1-8.652,0a6.238,6.238,0,0,0-4.394,1.689A6.227,6.227,0,0,0,0,37.982c-.1,1.731-.1,6.921,0,8.652a6.206,6.206,0,0,0,1.694,4.394,6.255,6.255,0,0,0,4.394,1.694c1.731.1,6.921.1,8.652,0a6.206,6.206,0,0,0,4.394-1.694,6.247,6.247,0,0,0,1.694-4.394C20.926,44.9,20.926,39.718,20.827,37.987ZM18.59,48.492A3.539,3.539,0,0,1,16.6,50.486c-1.38.548-4.656.421-6.182.421s-4.806.122-6.182-.421A3.539,3.539,0,0,1,2.24,48.492c-.548-1.38-.421-4.656-.421-6.182S1.7,37.5,2.24,36.129a3.539,3.539,0,0,1,1.993-1.993c1.38-.548,4.656-.421,6.182-.421s4.806-.122,6.182.421a3.539,3.539,0,0,1,1.993,1.993c.548,1.38.421,4.656.421,6.182S19.138,47.116,18.59,48.492Z" transform="translate(0.075 -31.825)" fill="#fff"/>
</svg>
