<svg xmlns="http://www.w3.org/2000/svg" width="25.821" height="20.971" viewBox="0 0 25.821 20.971">
  <path id="Path_143" data-name="Path 143" d="M23.167,53.308c.016.229.016.459.016.688A14.953,14.953,0,0,1,8.126,69.053,14.955,14.955,0,0,1,0,66.677a10.946,10.946,0,0,0,1.278.066,10.6,10.6,0,0,0,6.57-2.261A5.3,5.3,0,0,1,2.9,60.812a6.674,6.674,0,0,0,1,.082,5.6,5.6,0,0,0,1.393-.18A5.293,5.293,0,0,1,1.049,55.52v-.066a5.33,5.33,0,0,0,2.392.672A5.3,5.3,0,0,1,1.8,49.049a15.042,15.042,0,0,0,10.912,5.538,5.974,5.974,0,0,1-.131-1.212,5.3,5.3,0,0,1,9.159-3.621A10.419,10.419,0,0,0,25.1,48.475a5.278,5.278,0,0,1-2.326,2.916,10.609,10.609,0,0,0,3.047-.819A11.376,11.376,0,0,1,23.167,53.308Z" transform="translate(0 -48.082)" fill="#fff"/>
</svg>
