<svg xmlns="http://www.w3.org/2000/svg" width="96.703" height="35.449" viewBox="0 0 96.703 35.449">
  <g id="paypal" transform="translate(0.5 0.5)">
    <path id="Path_130" data-name="Path 130" d="M87.657,34.449H8.046A8.042,8.042,0,0,1,0,26.4V8.046A8.042,8.042,0,0,1,8.046,0H87.657A8.042,8.042,0,0,1,95.7,8.046V26.4A8.042,8.042,0,0,1,87.657,34.449Z" fill="#fff" stroke="#fff" stroke-width="1"/>
    <path id="Path_131" data-name="Path 131" d="M148.178,54.1h-4.743a.678.678,0,0,0-.656.551l-1.906,12.132a.374.374,0,0,0,.339.445h2.329a.678.678,0,0,0,.656-.55l.508-3.282a.645.645,0,0,1,.656-.551h1.5c3.112,0,4.912-1.5,5.378-4.51a3.622,3.622,0,0,0-.614-3.049,4.385,4.385,0,0,0-3.451-1.186Zm.551,4.425c-.254,1.694-1.567,1.694-2.816,1.694h-.72l.508-3.176a.388.388,0,0,1,.381-.339h.318c.847,0,1.652,0,2.075.487a1.492,1.492,0,0,1,.254,1.334Zm13.614-.064h-2.266a.388.388,0,0,0-.381.339l-.106.635-.148-.233a3.194,3.194,0,0,0-2.668-.953,5.23,5.23,0,0,0-5.06,4.552,4.22,4.22,0,0,0,.847,3.472,3.574,3.574,0,0,0,2.858,1.143,4.35,4.35,0,0,0,3.134-1.292l-.106.635a.373.373,0,0,0,.318.445h2.1a.678.678,0,0,0,.656-.551l1.228-7.749a.373.373,0,0,0-.318-.445c-.042.021-.064,0-.085,0Zm-3.176,4.425a2.523,2.523,0,0,1-2.562,2.16,1.763,1.763,0,0,1-1.884-2.2,2.536,2.536,0,0,1,2.541-2.181,1.9,1.9,0,0,1,1.5.614,1.829,1.829,0,0,1,.4,1.609Zm15.245-4.425h-2.287a.665.665,0,0,0-.551.3L168.441,63.4l-1.334-4.446a.661.661,0,0,0-.635-.466h-2.244a.4.4,0,0,0-.4.4.268.268,0,0,0,.021.127l2.52,7.368-2.35,3.324a.4.4,0,0,0,.085.551.427.427,0,0,0,.233.064H166.6a.7.7,0,0,0,.551-.275l7.58-10.947a.387.387,0,0,0-.106-.551.376.376,0,0,0-.212-.085Z" transform="translate(-111.04 -42.645)" fill="#253b80"/>
    <path id="Path_132" data-name="Path 132" d="M307.678,54.1h-4.743a.678.678,0,0,0-.656.551l-1.906,12.132a.373.373,0,0,0,.318.445h2.5a.439.439,0,0,0,.445-.381l.551-3.451a.645.645,0,0,1,.656-.551h1.5q4.669,0,5.4-4.51a3.622,3.622,0,0,0-.614-3.049,4.415,4.415,0,0,0-3.451-1.186Zm.551,4.425c-.254,1.694-1.546,1.694-2.816,1.694h-.72l.508-3.176a.388.388,0,0,1,.381-.339h.318c.847,0,1.652,0,2.075.487a1.492,1.492,0,0,1,.254,1.334Zm13.614-.064h-2.266a.388.388,0,0,0-.381.339l-.106.635-.169-.233a3.194,3.194,0,0,0-2.668-.953,5.23,5.23,0,0,0-5.06,4.552,4.22,4.22,0,0,0,.847,3.472,3.574,3.574,0,0,0,2.858,1.143,4.35,4.35,0,0,0,3.134-1.292l-.106.635a.373.373,0,0,0,.318.445h2.1a.678.678,0,0,0,.656-.551l1.228-7.749a.374.374,0,0,0-.339-.445c-.021.021-.021,0-.042,0Zm-3.176,4.425a2.523,2.523,0,0,1-2.562,2.16,1.763,1.763,0,0,1-1.884-2.2,2.536,2.536,0,0,1,2.541-2.181,1.9,1.9,0,0,1,1.5.614A1.829,1.829,0,0,1,318.667,62.887Zm5.844-8.469-1.948,12.365a.373.373,0,0,0,.318.445h2.011a.678.678,0,0,0,.656-.55l1.906-12.132a.373.373,0,0,0-.318-.445h-2.244A.37.37,0,0,0,324.511,54.418Z" transform="translate(-236.769 -42.645)" fill="#179bd7"/>
    <path id="Path_133" data-name="Path 133" d="M32.1,54.779l.36-2.308-.8-.021H27.8l2.668-16.96a.225.225,0,0,1,.212-.191h6.5c2.16,0,3.642.445,4.425,1.334a3.014,3.014,0,0,1,.7,1.334,4.365,4.365,0,0,1,0,1.821v.529l.36.212a2.778,2.778,0,0,1,.741.572A2.573,2.573,0,0,1,44,42.435a5.656,5.656,0,0,1-.085,1.948,7.108,7.108,0,0,1-.8,2.2,4.159,4.159,0,0,1-1.27,1.376,5.378,5.378,0,0,1-1.694.762,8.176,8.176,0,0,1-2.117.254h-.508a1.553,1.553,0,0,0-1,.36,1.469,1.469,0,0,0-.508.91l-.042.212L35.338,54.5l-.021.148a.11.11,0,0,1-.042.085.078.078,0,0,1-.064.021Z" transform="translate(-21.914 -27.826)" fill="#253b80"/>
    <path id="Path_134" data-name="Path 134" d="M56.244,57.1l-.064.381c-.847,4.4-3.79,5.907-7.538,5.907H46.738a.915.915,0,0,0-.91.783l-.974,6.183-.275,1.757a.482.482,0,0,0,.4.551h3.472a.819.819,0,0,0,.8-.678l.042-.169.635-4.044.042-.212a.8.8,0,0,1,.8-.678h.508c3.282,0,5.844-1.334,6.585-5.166a4.412,4.412,0,0,0-.678-3.9,3.429,3.429,0,0,0-.953-.72Z" transform="translate(-35.135 -45.01)" fill="#179bd7"/>
    <path id="Path_135" data-name="Path 135" d="M60.186,54.218a5.809,5.809,0,0,0-.826-.191,11.123,11.123,0,0,0-1.673-.127H52.606a.819.819,0,0,0-.8.678l-1.08,6.86-.021.191a.931.931,0,0,1,.91-.783h1.906c3.748,0,6.67-1.524,7.538-5.907l.064-.381a4.932,4.932,0,0,0-.7-.3.654.654,0,0,1-.233-.042Z" transform="translate(-39.965 -42.488)" fill="#222d65"/>
    <path id="Path_136" data-name="Path 136" d="M31.028,37.336a.8.8,0,0,1,.8-.678h5.082a10.328,10.328,0,0,1,1.673.127,5.492,5.492,0,0,1,1.016.254,5.331,5.331,0,0,1,.7.3,4.1,4.1,0,0,0-.889-3.726C38.481,32.466,36.724,32,34.5,32H28a.915.915,0,0,0-.91.783l-2.71,17.15a.568.568,0,0,0,.466.635h4.086l1.016-6.394Z" transform="translate(-19.214 -25.225)" fill="#253b80"/>
  </g>
</svg>
