<svg id="visa" xmlns="http://www.w3.org/2000/svg" width="54.609" height="34.449" viewBox="0 0 54.609 34.449">
  <path id="Path_137" data-name="Path 137" d="M3.569,0H51.037a3.569,3.569,0,0,1,3.569,3.569v27.31a3.569,3.569,0,0,1-3.569,3.569H3.569A3.568,3.568,0,0,1,0,30.879V3.569A3.569,3.569,0,0,1,3.569,0Z" transform="translate(0 0)" fill="#fff" fill-rule="evenodd"/>
  <path id="Path_138" data-name="Path 138" d="M54.609,3.925C54.609,1.3,53.245,0,50.6,0H4.006A3.707,3.707,0,0,0,1.073,1.073,3.816,3.816,0,0,0,0,3.925v26.6a3.846,3.846,0,0,0,1.073,2.849,3.98,3.98,0,0,0,2.932,1.073H50.6c2.644,0,4.008-1.321,4.008-3.925ZM50.6.619c2.19,0,3.3,1.116,3.3,3.3v26.6c0,2.21-1.116,3.3-3.3,3.3H4.006A3.24,3.24,0,0,1,1.548,32.9a3.207,3.207,0,0,1-.929-2.374V3.923c0-2.188,1.1-3.3,3.387-3.3Z" transform="translate(0 0)" fill="#315881" fill-rule="evenodd"/>
  <path id="Path_139" data-name="Path 139" d="M101.347,95.4a2.452,2.452,0,0,0-1.755.455A2.975,2.975,0,0,0,99.2,97.63v5.761h50.146V97.63a1.964,1.964,0,0,0-2.23-2.23Z" transform="translate(-96.967 -93.253)" fill="#315881" fill-rule="evenodd"/>
  <path id="Path_140" data-name="Path 140" d="M99.1,1082.261c0,1.528.722,2.313,2.147,2.313h45.769a2.014,2.014,0,0,0,2.23-2.313V1076.5H99.1Z" transform="translate(-96.87 -1052.273)" fill="#dfa43b" fill-rule="evenodd"/>
  <path id="Path_141" data-name="Path 141" d="M412.67,503.3a1.055,1.055,0,0,1-.144.619l-3.614,6.3-.227-7.683H402.9l1.942.929a1.584,1.584,0,0,1,.846,1.384l.538,8.158h2.829l6.774-10.472h-3.47A1.023,1.023,0,0,1,412.67,503.3Zm23.381-.455.227-.311h-3.533c.124.124.164.187.164.227-.043.164-.124.268-.164.392l-5.142,9.378c-.124.164-.248.311-.392.475h2.912l-.144-.311a4.421,4.421,0,0,1,.455-1.465l.619-1.157h3c.124.97.207,1.776.248,2.377l-.248.558h3.614l-.538-.785-1.074-9.378ZM433.9,508.61h-2.147l1.839-3.531ZM424.978,502a4.766,4.766,0,0,0-2.912.93A2.347,2.347,0,0,0,420.681,505a3.32,3.32,0,0,0,.99,2.458l2,1.384c.722.518,1.073.97,1.073,1.384a1.261,1.261,0,0,1-.538,1.013,1.941,1.941,0,0,1-1.24.392,9.661,9.661,0,0,1-3.677-1.465v1.92a7.6,7.6,0,0,0,3.9,1.22,4.529,4.529,0,0,0,3.079-1.073,2.71,2.71,0,0,0,.311-4.524l-1.922-1.384c-.639-.515-.99-.97-.99-1.321,0-.806.475-1.217,1.445-1.217a6.484,6.484,0,0,1,2.932,1.157l.394-2a6.818,6.818,0,0,0-3.466-.934Zm-7.683,11.007c-.041-.434-.124-.826-.167-1.24l2.624-8.469.619-.765h-3.779c.041.187.083.434.124.619a3.273,3.273,0,0,1-.04.619l-2.622,8.39-.538.846Z" transform="translate(-393.833 -490.702)" fill="#315881" fill-rule="evenodd"/>
</svg>
